<svg width="58" height="58" viewBox="0 0 58 58" fill="none" xmlns="http://www.w3.org/2000/svg">
<g clip-path="url(#clip0_1001_555)">
<path fill-rule="evenodd" clip-rule="evenodd" d="M29 5.8C16.187 5.8 5.8 16.187 5.8 29C5.8 41.813 16.187 52.2 29 52.2C41.813 52.2 52.2 41.813 52.2 29C52.2 16.187 41.813 5.8 29 5.8ZM0 29C0 12.9837 12.9837 0 29 0C45.0163 0 58 12.9837 58 29C58 45.0163 45.0163 58 29 58C12.9837 58 0 45.0163 0 29ZM26.9494 22.3506C25.8169 21.2181 25.8169 19.3819 26.9494 18.2494C28.0819 17.1169 29.9181 17.1169 31.0506 18.2494L39.7506 26.9494C40.8831 28.0819 40.8831 29.9181 39.7506 31.0506L31.0506 39.7506C29.9181 40.8831 28.0819 40.8831 26.9494 39.7506C25.8169 38.6181 25.8169 36.7819 26.9494 35.6494L30.6988 31.9H20.3C18.6984 31.9 17.4 30.6016 17.4 29C17.4 27.3984 18.6984 26.1 20.3 26.1H30.6988L26.9494 22.3506Z" fill="white"/>
</g>
<defs>
<clipPath id="clip0_1001_555">
<rect width="58" height="58" fill="white"/>
</clipPath>
</defs>
</svg>
