<svg width="58" height="58" viewBox="0 0 58 58" fill="none" xmlns="http://www.w3.org/2000/svg">
<path fill-rule="evenodd" clip-rule="evenodd" d="M29 58C45.0163 58 58 45.0163 58 29C58 12.9837 45.0163 0 29 0C12.9837 0 0 12.9837 0 29C0 45.0163 12.9837 58 29 58ZM26.9494 18.2494C25.8169 19.3819 25.8169 21.2181 26.9494 22.3506L30.6988 26.1H20.3C18.6984 26.1 17.4 27.3984 17.4 29C17.4 30.6016 18.6984 31.9 20.3 31.9H30.6988L26.9494 35.6494C25.8169 36.7819 25.8169 38.6181 26.9494 39.7506C28.0819 40.8831 29.9181 40.8831 31.0506 39.7506L39.7506 31.0506C40.8831 29.9181 40.8831 28.0819 39.7506 26.9494L31.0506 18.2494C29.9181 17.1169 28.0819 17.1169 26.9494 18.2494Z" fill="white"/>
</svg>
